<svg width="40" height="40" viewBox="0 0 40 40" fill="none" xmlns="http://www.w3.org/2000/svg">
<rect width="40" height="40" rx="20" transform="matrix(-1 0 0 1 40 0)" fill="white" fill-opacity="0.5"/>
<path d="M15.9596 27.6256C16.3501 28.0161 16.9832 28.0161 17.3738 27.6256L24.2929 20.7065C24.6834 20.3159 24.6834 19.6828 24.2929 19.2922L17.3738 12.3731C16.9832 11.9826 16.3501 11.9826 15.9596 12.3731L15.8946 12.4381C15.5041 12.8286 15.5041 13.4618 15.8946 13.8523L21.3346 19.2922C21.7251 19.6828 21.7251 20.3159 21.3346 20.7065L15.8946 26.1464C15.5041 26.5369 15.5041 27.1701 15.8946 27.5606L15.9596 27.6256Z" fill="black"/>
</svg>
